<?xml version="1.0" encoding="utf-8"?>
<!-- Generator: Adobe Illustrator 22.1.0, SVG Export Plug-In . SVG Version: 6.00 Build 0)  -->
<svg version="1.1" id="Camada_1" xmlns="http://www.w3.org/2000/svg" xmlns:xlink="http://www.w3.org/1999/xlink" x="0px" y="0px"
	 viewBox="0 0 566.9 566.9" style="enable-background:new 0 0 566.9 566.9;" xml:space="preserve">
<style type="text/css">
	.st0{fill:#515B63;}
</style>
<g>
	<g>
		<g>
			<polygon class="st0" points="547.9,496 547.9,489.2 32.1,489.2 286.7,86.5 524,461.7 84.2,461.7 286.7,141.6 471.7,434 
				136.5,434 286.7,196.6 419.5,406.5 188.7,406.5 286.7,251.7 367.2,379.1 241,379.1 286.7,306.8 315,351.6 286.7,351.6 
				286.7,358.4 328.1,358.4 286.7,293 228,385.9 380.4,385.9 286.7,237.9 175.7,413.4 432.6,413.4 286.7,182.9 123.5,441 484.9,441 
				286.7,127.8 71.2,468.5 537.1,468.5 286.7,72.8 19,496 			"/>
		</g>
	</g>
</g>
</svg>
