<?xml version="1.0" encoding="utf-8"?>
<!-- Generator: Adobe Illustrator 22.1.0, SVG Export Plug-In . SVG Version: 6.00 Build 0)  -->
<svg version="1.1" id="Layer_1" xmlns="http://www.w3.org/2000/svg" xmlns:xlink="http://www.w3.org/1999/xlink" x="0px" y="0px"
	 viewBox="0 0 161.6 92.6" style="enable-background:new 0 0 161.6 92.6;" xml:space="preserve">
<style type="text/css">
	.st0{fill:#FFFFFF;}
</style>
<g>
	<path class="st0" d="M32.3,32.3c-1.4-1.4-2.9-2.4-4.7-3.1c-1.8-0.7-3.6-1.1-5.5-1.1c-1.8,0-3.4,0.3-5,0.9c-1.6,0.6-3,1.4-4.3,2.5
		V12.7c0-0.7-0.3-1.3-0.7-1.8c-0.5-0.5-1.1-0.7-1.8-0.7c-0.7,0-1.3,0.2-1.8,0.7c-0.5,0.5-0.7,1.1-0.7,1.8v29.9
		c0,1.9,0.4,3.8,1.1,5.5c0.7,1.8,1.8,3.3,3.1,4.7c1.4,1.4,2.9,2.4,4.7,3.2c1.8,0.7,3.6,1.1,5.6,1.1c1.9,0,3.8-0.4,5.5-1.1
		c1.8-0.8,3.3-1.8,4.7-3.2c1.4-1.4,2.4-2.9,3.1-4.7c0.7-1.8,1.1-3.6,1.1-5.5c0-2-0.4-3.8-1.1-5.6C34.7,35.2,33.7,33.7,32.3,32.3z
		 M30.7,46.2c-0.5,1.1-1.2,2.1-2,3c-0.8,0.8-1.8,1.5-3,2c-1.1,0.5-2.3,0.7-3.6,0.7c-1.3,0-2.5-0.2-3.6-0.7c-1.1-0.5-2.1-1.2-2.9-2
		c-0.8-0.8-1.5-1.8-2-2.9c-0.5-1.1-0.8-2.3-0.8-3.6v-0.5c0-1.2,0.3-2.4,0.8-3.5c0.5-1.1,1.2-2.1,2-2.9s1.8-1.4,2.9-1.9
		c1.1-0.5,2.3-0.7,3.6-0.7c1.3,0,2.5,0.2,3.6,0.7c1.1,0.5,2.1,1.1,3,2c0.9,0.8,1.5,1.8,2,3c0.5,1.2,0.7,2.4,0.7,3.6
		C31.4,43.8,31.1,45,30.7,46.2z"/>
	<path class="st0" d="M65.6,30.9c-1.5-1.5-3.2-2.6-5.1-3.4c-1.9-0.8-3.9-1.1-6.1-1.1c-2.1,0-4.1,0.4-6.1,1.1
		c-1.9,0.8-3.6,1.9-5.1,3.4c-1.5,1.5-2.6,3.2-3.4,5c-0.8,1.9-1.2,3.9-1.2,6c0,2.1,0.4,4.1,1.2,6c0.8,1.9,2,3.6,3.4,5
		c1.5,1.5,3.2,2.6,5.1,3.3c1.9,0.8,3.9,1.2,6.1,1.2c2,0,3.9-0.3,5.7-1c1.8-0.7,3.5-1.7,5-3v1.5c0,0.7,0.3,1.3,0.7,1.8
		c0.5,0.5,1.1,0.7,1.8,0.7c0.7,0,1.3-0.3,1.8-0.7c0.5-0.5,0.7-1.1,0.7-1.8V43.3c0-0.3,0-0.5,0-0.7c0-0.2,0-0.5,0-0.7
		c0-2.1-0.4-4.1-1.2-6C68.3,34,67.1,32.3,65.6,30.9z M65.1,43c-0.1,1.3-0.5,2.5-1.1,3.6c-0.6,1.1-1.4,2.1-2.4,3
		c-1,0.8-2.1,1.5-3.3,2c-1.2,0.5-2.5,0.7-3.9,0.7c-1.5,0-2.9-0.3-4.2-0.8c-1.3-0.6-2.4-1.3-3.4-2.2c-1-0.9-1.7-2-2.3-3.3
		c-0.6-1.3-0.9-2.6-0.9-4c0-1.5,0.3-2.8,0.9-4.1c0.6-1.3,1.4-2.4,2.3-3.3c1-0.9,2.1-1.7,3.4-2.2c1.3-0.6,2.7-0.8,4.2-0.8
		c1.4,0,2.7,0.3,3.9,0.7c1.2,0.5,2.3,1.1,3.3,2c1,0.8,1.8,1.8,2.4,2.9c0.6,1.1,1,2.3,1.1,3.6V43z"/>
	<path class="st0" d="M99.6,39c-0.7,0-1.3,0.3-1.8,0.8c-0.4,0.4-0.6,0.8-0.7,1.3v13.9c0,0.7,0.3,1.3,0.7,1.8
		c0.5,0.5,1.1,0.7,1.8,0.7c0.7,0,1.3-0.2,1.8-0.7c0.5-0.5,0.7-1.1,0.7-1.8V41.6c0-0.7-0.3-1.3-0.8-1.8C100.9,39.2,100.3,39,99.6,39z
		"/>
	<path class="st0" d="M74.9,39c-0.7,0-1.3,0.3-1.8,0.8c-0.5,0.5-0.8,1.1-0.8,1.9v13.3c0,0.7,0.3,1.3,0.7,1.8
		c0.5,0.5,1.1,0.7,1.8,0.7c0.7,0,1.3-0.2,1.8-0.7c0.5-0.5,0.7-1.1,0.7-1.8l0-12.9l0-0.8c-0.1-0.6-0.3-1.1-0.7-1.5
		C76.3,39.2,75.7,39,74.9,39z"/>
	<path class="st0" d="M77.5,40.1C77.5,40.1,77.5,40.1,77.5,40.1C77.6,39.9,77.5,39.9,77.5,40.1L77.5,40.1z"/>
	<path class="st0" d="M121.8,33.5c0.8-2,1.2-4.1,1.2-6.2c0-0.7-0.2-1.3-0.7-1.8c-0.5-0.5-1.1-0.7-1.8-0.7c-0.7,0-1.3,0.2-1.8,0.7
		c-0.5,0.5-0.7,1.1-0.7,1.8c0,1.3-0.2,2.6-0.6,3.7c-0.4,1.2-1,2.2-1.8,3.2c-0.8,1-1.7,1.8-2.7,2.4c-1.1,0.7-2.2,1.1-3.4,1.4V12.7
		c0-0.7-0.3-1.3-0.7-1.8c-0.5-0.5-1.1-0.7-1.8-0.7c-0.7,0-1.3,0.2-1.8,0.7c-0.5,0.5-0.7,1.1-0.7,1.8v42c0,0.7,0.3,1.3,0.7,1.8
		c0.5,0.5,1.1,0.7,1.8,0.7c0.7,0,1.3-0.3,1.8-0.7c0.5-0.5,0.7-1.1,0.7-1.8V43.8c1.2,0.3,2.4,0.8,3.4,1.4c1,0.7,1.9,1.5,2.7,2.4
		c0.8,1,1.4,2,1.8,3.2c0.4,1.2,0.6,2.4,0.6,3.7c0,0.7,0.2,1.3,0.7,1.8c0.5,0.5,1.1,0.7,1.8,0.7c0.7,0,1.3-0.3,1.8-0.7
		c0.5-0.5,0.7-1.1,0.7-1.8c0-2.2-0.4-4.3-1.2-6.2c-0.8-2-2-3.7-3.5-5.3c-0.9-0.8-1.8-1.5-2.8-2.2c1-0.6,1.9-1.4,2.8-2.2
		C119.8,37.2,121,35.5,121.8,33.5z"/>
	<path class="st0" d="M151.4,65.5c-0.7,0-1.3,0.2-1.8,0.7c-0.5,0.5-0.7,1.1-0.7,1.8c0,1.3-0.2,2.5-0.7,3.6c-0.5,1.2-1.2,2.1-2,3
		c-0.8,0.8-1.8,1.5-3,2c-1.2,0.5-2.4,0.7-3.7,0.7s-2.5-0.2-3.6-0.7c-1.1-0.5-2.1-1.1-3-2c-0.9-0.8-1.5-1.8-2-3
		c-0.5-1.2-0.7-2.4-0.7-3.6c0-0.7-0.3-1.3-0.7-1.8c-0.5-0.5-1.1-0.7-1.8-0.7c-0.7,0-1.3,0.2-1.8,0.7c-0.5,0.5-0.7,1.1-0.7,1.8
		c0,2,0.4,3.8,1.1,5.6c0.7,1.8,1.8,3.3,3.1,4.7c1.4,1.4,2.9,2.4,4.7,3.1c1.8,0.7,3.6,1.1,5.5,1.1c1.9,0,3.8-0.4,5.5-1.1
		c1.8-0.7,3.3-1.8,4.7-3.1c2.8-2.8,4.2-6.2,4.2-10.2c0-0.7-0.3-1.3-0.7-1.8C152.8,65.7,152.2,65.5,151.4,65.5z"/>
	<path class="st0" d="M153.3,26.2c-0.5-0.5-1.1-0.7-1.8-0.7c-0.7,0-1.3,0.2-1.8,0.7c-0.5,0.5-0.7,1.1-0.7,1.8v14.3
		c0,1.3-0.2,2.5-0.7,3.6c-0.5,1.2-1.2,2.1-2,3c-0.8,0.8-1.8,1.5-3,2c-1.2,0.5-2.4,0.7-3.7,0.7s-2.5-0.2-3.6-0.7
		c-1.1-0.5-2.1-1.2-3-2c-0.9-0.8-1.5-1.8-2-3c-0.5-1.2-0.7-2.4-0.7-3.6V28c0-0.7-0.3-1.3-0.7-1.8c-0.5-0.5-1.1-0.7-1.8-0.7
		c-0.7,0-1.3,0.3-1.8,0.7c-0.5,0.5-0.7,1.1-0.7,1.8v14.3c0,1.9,0.4,3.8,1.1,5.5c0.7,1.8,1.8,3.3,3.1,4.7c1.4,1.4,2.9,2.4,4.7,3.1
		c1.8,0.7,3.6,1.1,5.5,1.1c1.8,0,3.4-0.3,5-0.9c1.6-0.6,3-1.4,4.3-2.5v0.8c0,0.7,0.3,1.3,0.7,1.8c0.5,0.5,1.1,0.7,1.8,0.7
		c0.7,0,1.3-0.2,1.8-0.7c0.5-0.5,0.7-1.1,0.7-1.8V28C154,27.3,153.7,26.7,153.3,26.2z"/>
	<path class="st0" d="M99.5,43.9c0.7,0,1.3-0.2,1.8-0.7c0,0,0.1,0,0.1-0.1c0.5-0.5,0.8-1.1,0.8-1.9c0-2-0.4-3.9-1.1-5.7
		c-0.7-1.8-1.8-3.4-3.2-4.8c-1.4-1.4-3-2.5-4.9-3.2c-1.8-0.8-3.7-1.1-5.7-1.1c-2,0-3.9,0.4-5.7,1.1c-1.8,0.7-3.4,1.8-4.9,3.2
		c-2.9,2.9-4.4,6.4-4.4,10.6c0,0.7,0.3,1.4,0.8,1.9c0,0,0.1,0,0.1,0.1c0.5,0.5,1.1,0.7,1.8,0.7c0.7,0,1.4-0.2,1.9-0.8
		c0.5-0.5,0.8-1.1,0.8-1.9c0-1.3,0.2-2.6,0.8-3.8c0.2-0.4,0.3-0.7,0.5-1c0.4-0.8,0.9-1.4,1.5-2c0.9-0.9,1.9-1.5,3.1-2.1
		c1.2-0.5,2.4-0.8,3.8-0.8c1.3,0,2.6,0.2,3.7,0.8c1.2,0.5,2.2,1.2,3.1,2.1c0.6,0.6,1.1,1.3,1.6,2c0.2,0.3,0.4,0.7,0.5,1
		c0.5,1.2,0.8,2.4,0.8,3.8c0,0.7,0.3,1.4,0.8,1.9C98.1,43.6,98.8,43.9,99.5,43.9z"/>
</g>
</svg>
