<svg xmlns="http://www.w3.org/2000/svg" viewBox="0 0 360.117 355">
  <defs>
    <style>
      .cls-1, .cls-10, .cls-16, .cls-6 {
        fill: #fff;
      }

      .cls-1 {
        opacity: 0.1;
      }

      .cls-2 {
        fill: #fddcbe;
      }

      .cls-3 {
        fill: #e8edf2;
      }

      .cls-13, .cls-4 {
        opacity: 0.05;
      }

      .cls-5 {
        fill: #1f3740;
      }

      .cls-7 {
        fill: #00bcff;
      }

      .cls-8 {
        fill: #57433d;
      }

      .cls-9 {
        fill: #e5949b;
      }

      .cls-10 {
        opacity: 0.7;
      }

      .cls-11 {
        fill: #0755a4;
      }

      .cls-12 {
        fill: #f9db44;
      }

      .cls-14 {
        fill: #022c57;
      }

      .cls-15 {
        opacity: 0.3;
      }

      .cls-16 {
        opacity: 0.8;
      }

      .cls-17 {
        fill: #68fe77;
      }

      .cls-18, .cls-19 {
        stroke: none;
      }

      .cls-19 {
        fill: #707070;
      }
    </style>
  </defs>
  <g id="Group_115" data-name="Group 115" transform="translate(-783 -217.5)">
    <g id="Path_248" data-name="Path 248" class="cls-1" transform="translate(783 217.5)">
      <path class="cls-18" d="M 177.4998626708984 354.4997253417969 C 165.4903106689453 354.4997253417969 153.4884490966797 353.2898559570313 141.8276824951172 350.9037170410156 C 130.4635009765625 348.5782775878906 119.2853622436523 345.1083679199219 108.6036834716797 340.5903930664063 C 98.11581420898438 336.1544189453125 88.00022888183594 330.6638488769531 78.53791046142578 324.271240234375 C 69.16535949707031 317.9392700195313 60.3518180847168 310.6674194335938 52.34204483032227 302.6576843261719 C 44.33231735229492 294.64794921875 37.06049728393555 285.8344116210938 30.7284984588623 276.4618225097656 C 24.33586311340332 266.99951171875 18.84531784057617 256.8839111328125 14.40931701660156 246.3960418701172 C 9.891363143920898 235.7144012451172 6.421453475952148 224.5362243652344 4.095999240875244 213.1720428466797 C 1.70986270904541 201.5112762451172 0.4999990463256836 189.5094146728516 0.4999990463256836 177.4998626708984 C 0.4999990463256836 165.4903106689453 1.70986270904541 153.4884490966797 4.095999240875244 141.8276824951172 C 6.421453475952148 130.4635009765625 9.891363143920898 119.2853622436523 14.40931701660156 108.6036834716797 C 18.84531784057617 98.11581420898438 24.33586311340332 88.00022888183594 30.7284984588623 78.53791046142578 C 37.06049728393555 69.16535949707031 44.33231735229492 60.3518180847168 52.34204483032227 52.34204483032227 C 60.3518180847168 44.33231735229492 69.16535949707031 37.06049728393555 78.53791046142578 30.7284984588623 C 88.00022888183594 24.33586311340332 98.11581420898438 18.84531784057617 108.6036834716797 14.40931701660156 C 119.2853622436523 9.891363143920898 130.4635009765625 6.421453475952148 141.8276824951172 4.095999240875244 C 153.4884490966797 1.70986270904541 165.4903106689453 0.4999990463256836 177.4998626708984 0.4999990463256836 C 189.5094146728516 0.4999990463256836 201.5112762451172 1.70986270904541 213.1720428466797 4.095999240875244 C 224.5362243652344 6.421453475952148 235.7144012451172 9.891363143920898 246.3960418701172 14.40931701660156 C 256.8839111328125 18.84531784057617 266.99951171875 24.33586311340332 276.4618225097656 30.7284984588623 C 285.8344116210938 37.06049728393555 294.64794921875 44.33231735229492 302.6576843261719 52.34204483032227 C 310.6674194335938 60.3518180847168 317.9392700195313 69.16535949707031 324.271240234375 78.53791046142578 C 330.6638488769531 88.00022888183594 336.1544189453125 98.11581420898438 340.5903930664063 108.6036834716797 C 345.1083679199219 119.2853622436523 348.5782775878906 130.4635009765625 350.9037170410156 141.8276824951172 C 353.2898559570313 153.4884490966797 354.4997253417969 165.4903106689453 354.4997253417969 177.4998626708984 C 354.4997253417969 189.5094146728516 353.2898559570313 201.5112762451172 350.9037170410156 213.1720428466797 C 348.5782775878906 224.5362243652344 345.1083679199219 235.7144012451172 340.5903930664063 246.3960418701172 C 336.1544189453125 256.8839111328125 330.6638488769531 266.99951171875 324.271240234375 276.4618225097656 C 317.9392700195313 285.8344116210938 310.6674194335938 294.64794921875 302.6576843261719 302.6576843261719 C 294.64794921875 310.6674194335938 285.8344116210938 317.9392700195313 276.4618225097656 324.271240234375 C 266.99951171875 330.6638488769531 256.8839111328125 336.1544189453125 246.3960418701172 340.5903930664063 C 235.7144012451172 345.1083679199219 224.5362243652344 348.5782775878906 213.1720428466797 350.9037170410156 C 201.5112762451172 353.2898559570313 189.5094146728516 354.4997253417969 177.4998626708984 354.4997253417969 Z"/>
      <path class="cls-19" d="M 177.4998626708984 1 C 165.5239105224609 1 153.5557708740234 2.206451416015625 141.9279022216797 4.58587646484375 C 130.5960845947266 6.904693603515625 119.4497222900391 10.36471557617188 108.7984466552734 14.86981201171875 C 98.34033203125 19.293212890625 88.25341796875 24.76828002929688 78.81781005859375 31.142822265625 C 69.47164916992188 37.45700073242188 60.682861328125 44.70840454101563 52.69564819335938 52.69564819335938 C 44.70840454101563 60.682861328125 37.45700073242188 69.47164916992188 31.142822265625 78.81781005859375 C 24.76828002929688 88.25341796875 19.293212890625 98.34033203125 14.86981201171875 108.7984466552734 C 10.36471557617188 119.4497222900391 6.904693603515625 130.5960845947266 4.58587646484375 141.9279022216797 C 2.206451416015625 153.5557708740234 1 165.5239105224609 1 177.4998626708984 C 1 189.4758148193359 2.206451416015625 201.4439544677734 4.58587646484375 213.0718231201172 C 6.904693603515625 224.4036407470703 10.36471557617188 235.5499877929688 14.86981201171875 246.2012634277344 C 19.293212890625 256.659423828125 24.76828002929688 266.7463073730469 31.142822265625 276.1819152832031 C 37.45700073242188 285.528076171875 44.70840454101563 294.3168640136719 52.69564819335938 302.3040771484375 C 60.682861328125 310.2913208007813 69.47164916992188 317.542724609375 78.81781005859375 323.8569030761719 C 88.25341796875 330.2314453125 98.34033203125 335.7065124511719 108.7984466552734 340.1299133300781 C 119.4497222900391 344.635009765625 130.5960845947266 348.0950317382813 141.9279022216797 350.4138488769531 C 153.5557708740234 352.7932739257813 165.5239105224609 353.9997253417969 177.4998626708984 353.9997253417969 C 189.4758148193359 353.9997253417969 201.4439544677734 352.7932739257813 213.0718231201172 350.4138488769531 C 224.4036407470703 348.0950317382813 235.5499877929688 344.635009765625 246.2012634277344 340.1299133300781 C 256.659423828125 335.7065124511719 266.7463073730469 330.2314453125 276.1819152832031 323.8569030761719 C 285.528076171875 317.542724609375 294.3168640136719 310.2913208007813 302.3040771484375 302.3040771484375 C 310.2913208007813 294.3168640136719 317.542724609375 285.528076171875 323.8569030761719 276.1819152832031 C 330.2314453125 266.7463073730469 335.7065124511719 256.659423828125 340.1299133300781 246.2012634277344 C 344.635009765625 235.5499877929688 348.0950317382813 224.4036407470703 350.4138488769531 213.0718231201172 C 352.7932739257813 201.4439544677734 353.9997253417969 189.4758148193359 353.9997253417969 177.4998626708984 C 353.9997253417969 165.5239105224609 352.7932739257813 153.5557708740234 350.4138488769531 141.9279022216797 C 348.0950317382813 130.5960845947266 344.635009765625 119.4497222900391 340.1299133300781 108.7984466552734 C 335.7065124511719 98.34033203125 330.2314453125 88.25341796875 323.8569030761719 78.81781005859375 C 317.542724609375 69.47164916992188 310.2913208007813 60.682861328125 302.3040771484375 52.69564819335938 C 294.3168640136719 44.70840454101563 285.528076171875 37.45700073242188 276.1819152832031 31.142822265625 C 266.7463073730469 24.76828002929688 256.659423828125 19.293212890625 246.2012634277344 14.86981201171875 C 235.5499877929688 10.36471557617188 224.4036407470703 6.904693603515625 213.0718231201172 4.58587646484375 C 201.4439544677734 2.206451416015625 189.4758148193359 1 177.4998626708984 1 M 177.4998626708984 0 C 275.5303344726563 0 354.9997253417969 79.46942138671875 354.9997253417969 177.4998626708984 C 354.9997253417969 275.5303344726563 275.5303344726563 354.9997253417969 177.4998626708984 354.9997253417969 C 79.46942138671875 354.9997253417969 0 275.5303344726563 0 177.4998626708984 C 0 79.46942138671875 79.46942138671875 0 177.4998626708984 0 Z"/>
    </g>
    <g id="Group_31" data-name="Group 31" transform="matrix(0.966, 0.259, -0.259, 0.966, 915.31, 281.934)">
      <g id="Group_34" data-name="Group 34" transform="translate(112.374 51.66)">
        <g id="Group_31-2" data-name="Group 31" transform="translate(14.931)">
          <path id="Path_11" data-name="Path 11" class="cls-2" d="M381.253,137.585c.941-1.754,2.524-4.706.9-5.219-.77-.257-1.326.171-1.8.813.3-.813.3-2.011-.513-2.267a1.886,1.886,0,0,0-1.968,1.241c.342-.727.128-2.4-.642-2.61a2.326,2.326,0,0,0-2.353.941c.342-1.112,4.449-9.2,2.781-9.712-1.669-.556-5.99,10.1-6.674,11.808-.727,1.711-14.631,41.584-72.943,36.45l-.642,10.482C361.4,184.346,380.269,139.339,381.253,137.585Z" transform="translate(-297.4 -120.751)"/>
        </g>
        <g id="Group_32" data-name="Group 32" transform="translate(0 45.584)">
          <path id="Path_12" data-name="Path 12" class="cls-3" d="M263.142,238.252a62.926,62.926,0,0,0,14.289,2.139l.642-10.482A66.77,66.77,0,0,1,262.5,227.3Z" transform="translate(-262.5 -227.3)"/>
        </g>
        <g id="Group_33" data-name="Group 33" class="cls-4" transform="translate(0 45.584)">
          <path id="Path_13" data-name="Path 13" d="M262.5,227.3l.642,10.952a73.469,73.469,0,0,0,7.273,1.5l-6.931-12.193C263.184,227.471,262.842,227.386,262.5,227.3Z" transform="translate(-262.5 -227.3)"/>
        </g>
      </g>
      <g id="Group_45" data-name="Group 45" transform="translate(0.125 6.032)">
        <g id="Group_44" data-name="Group 44">
          <g id="Group_43" data-name="Group 43">
            <g id="Group_42" data-name="Group 42">
              <g id="Group_40" data-name="Group 40">
                <path id="Path_14" data-name="Path 14" class="cls-5" d="M214.082,418.972c-11.808-12.621-19.979-.513-19.979-.513L179.214,354.2c-46.8,12.663-71.189,29.947-71.189,29.947l-2.61,40.9s-6.8-6.118-14.717-.941c-10.524,6.974,19.38,8.043,19.38,8.043l7.316-41.755c37.734-8.214,54.8-19.081,54.8-19.081l18.567,54.034C190.723,425.347,222.51,427.956,214.082,418.972Z" transform="translate(-50.665 -208.698)"/>
                <g id="Group_38" data-name="Group 38">
                  <g id="Group_37" data-name="Group 37">
                    <g id="Group_35" data-name="Group 35" transform="translate(21.911 35.172)">
                      <path id="Path_15" data-name="Path 15" class="cls-2" d="M141.207,150.854S117.335,58.83,58.381,113.848c0,0-16.043,24.215.3,69.649C131.624,171.946,141.207,150.854,141.207,150.854Z" transform="translate(-51.339 -96.312)"/>
                    </g>
                    <g id="Group_36" data-name="Group 36">
                      <path id="Path_16" data-name="Path 16" class="cls-5" d="M90.684,14.1s20.535,57.242-53.734,66.4l1.711,18.311s-9.968-4.107-9.2,4.749c.727,8.856,9.455,1.754,9.455,1.754s-1.455,22.076-9.5,31.1c.6.556-55.788-75.04-13.647-79.19,0,0-.556-17.84,21.819-27C60.779,20.86,80.715,46.443,90.684,14.1Z" transform="translate(-0.125 -14.1)"/>
                    </g>
                  </g>
                </g>
                <g id="Group_39" data-name="Group 39" transform="translate(29.252 89.714)">
                  <path id="Path_17" data-name="Path 17" class="cls-6" d="M151.027,223.8,167.8,279.588s-25.541,17.968-71.189,29.947L68.5,256.443S126.726,243.651,151.027,223.8Z" transform="translate(-68.5 -223.8)"/>
                </g>
              </g>
              <g id="Group_41" data-name="Group 41" transform="translate(86.923 108.153)">
                <path id="Path_18" data-name="Path 18" class="cls-7" d="M210.445,266.9l2.909,2.653-1.155,4.663,10.567,28.279-7.53,11.337-9.84-8.342,2.139-29.177-4.235-3.08.6-3.166Z" transform="translate(-203.3 -266.9)"/>
              </g>
            </g>
          </g>
        </g>
      </g>
      <g id="Group_48" data-name="Group 48" transform="translate(83.109 66.006)">
        <g id="Group_47" data-name="Group 47">
          <g id="Group_46" data-name="Group 46">
            <path id="Path_19" data-name="Path 19" class="cls-8" d="M194.91,161.008c1.241,3.08,3.423,5.091,4.92,4.535,1.455-.6,1.668-3.551.385-6.631-1.241-3.08-3.423-5.091-4.92-4.535C193.883,154.975,193.67,157.927,194.91,161.008Z" transform="translate(-194.095 -154.284)"/>
          </g>
        </g>
      </g>
      <g id="Group_51" data-name="Group 51" transform="translate(47.5 81.707)">
        <g id="Group_50" data-name="Group 50">
          <g id="Group_49" data-name="Group 49">
            <path id="Path_20" data-name="Path 20" class="cls-8" d="M111.691,197.708c1.241,3.08,3.423,5.091,4.92,4.535,1.455-.6,1.626-3.551.385-6.631s-3.423-5.091-4.92-4.535C110.622,191.675,110.451,194.627,111.691,197.708Z" transform="translate(-110.862 -190.984)"/>
          </g>
        </g>
      </g>
      <g id="Group_54" data-name="Group 54" transform="translate(64.023 86.737)">
        <g id="Group_53" data-name="Group 53">
          <g id="Group_52" data-name="Group 52">
            <path id="Path_21" data-name="Path 21" class="cls-9" d="M172.55,202.809c-3.679,1.241-15.188,5.3-22.461,10.439a1.4,1.4,0,0,0-.471,1.754c1.283,3.038,5.861,10.909,17.712,5.776,11.722-5.048,8.6-14.075,7.016-17.2A1.506,1.506,0,0,0,172.55,202.809Z" transform="translate(-149.483 -202.741)"/>
          </g>
        </g>
      </g>
      <g id="Group_56" data-name="Group 56" transform="translate(96.844 0)">
        <path id="Path_22" data-name="Path 22" class="cls-10" d="M368.173,51.607V30.9H247.1V51.607c0,51.552,31.787,71.874,49.285,79.147a1.144,1.144,0,0,1,0,2.139c-17.5,7.273-49.285,27.637-49.285,79.147v20.707H368.173V212.039c0-51.552-31.787-71.874-49.285-79.147a1.144,1.144,0,0,1,0-2.139C336.386,123.438,368.173,103.116,368.173,51.607Z" transform="translate(-238.158 -17.68)"/>
        <path id="Path_23" data-name="Path 23" class="cls-11" d="M361.263,0H230.136A3.926,3.926,0,0,0,226.2,3.936V9.284a3.926,3.926,0,0,0,3.936,3.936H361.263A3.926,3.926,0,0,0,365.2,9.284V3.936A3.981,3.981,0,0,0,361.263,0Z" transform="translate(-226.2 0)"/>
        <path id="Path_24" data-name="Path 24" class="cls-11" d="M361.263,502.7H230.136a3.926,3.926,0,0,0-3.936,3.936v5.348a3.926,3.926,0,0,0,3.936,3.936H361.263a3.926,3.926,0,0,0,3.936-3.936v-5.348A3.981,3.981,0,0,0,361.263,502.7Z" transform="translate(-226.2 -287.635)"/>
        <path id="Path_25" data-name="Path 25" class="cls-5" d="M361.263,518.936H230.136A3.926,3.926,0,0,1,226.2,515v4.021a3.926,3.926,0,0,0,3.936,3.936H361.263a3.926,3.926,0,0,0,3.936-3.936V515A3.981,3.981,0,0,1,361.263,518.936Z" transform="translate(-226.2 -294.673)"/>
        <path id="Path_26" data-name="Path 26" class="cls-12" d="M262.255,101.587a1.748,1.748,0,0,0-2.267,1.84,83.427,83.427,0,0,0,8.257,29.263,70.877,70.877,0,0,0,19.295,23.573A77.045,77.045,0,0,0,315,170.081a76.194,76.194,0,0,0,27.124-13.519,70.067,70.067,0,0,0,19.509-23.573,82.862,82.862,0,0,0,8.385-29.52,1.748,1.748,0,0,0-2.267-1.84l-37.263,12.193a50.044,50.044,0,0,1-31.06,0Z" transform="translate(-245.527 -58.077)"/>
        <path id="Path_27" data-name="Path 27" class="cls-12" d="M258.6,437.414,314.259,388.6l55.574,48.814Z" transform="translate(-244.739 -222.349)"/>
        <g id="Group_55" data-name="Group 55" transform="translate(67.553 107.383)">
          <rect id="Rectangle_139" data-name="Rectangle 139" class="cls-12" width="3.936" height="65.457"/>
        </g>
      </g>
      <path id="Path_28" data-name="Path 28" class="cls-13" d="M176.256,289.9l-3.209-10.7c-11.209,9.8-30.8,19.295-62.975,13.6-5.391-.77-8.9-1.112-15.273-3.465l-.3,10.482a64.475,64.475,0,0,0,14.033,3.38C140.79,308.506,162.566,299.864,176.256,289.9Z" transform="translate(-54 -159.753)"/>
      <g id="Group_59" data-name="Group 59" transform="translate(39.816 83.532)">
        <g id="Group_57" data-name="Group 57" transform="translate(14.931)">
          <path id="Path_29" data-name="Path 29" class="cls-2" d="M211.653,212.085c.941-1.754,2.524-4.706.9-5.219-.77-.257-1.326.171-1.8.813.3-.813.3-2.011-.513-2.267a1.886,1.886,0,0,0-1.968,1.241c.342-.727.128-2.4-.642-2.61a2.326,2.326,0,0,0-2.353.941c.342-1.112,4.449-9.2,2.781-9.711-1.669-.556-5.989,10.1-6.674,11.808-.727,1.711-14.631,41.584-72.943,36.45l-.642,10.482C191.8,258.846,210.669,213.839,211.653,212.085Z" transform="translate(-127.8 -195.251)"/>
        </g>
        <g id="Group_58" data-name="Group 58" transform="translate(0 45.584)">
          <path id="Path_30" data-name="Path 30" class="cls-3" d="M93.542,312.752a62.925,62.925,0,0,0,14.289,2.139l.642-10.482A66.773,66.773,0,0,1,92.9,301.8Z" transform="translate(-92.9 -301.8)"/>
        </g>
      </g>
      <path id="Path_31" data-name="Path 31" class="cls-14" d="M361.263,16.236H230.136A3.926,3.926,0,0,1,226.2,12.3v4.022a3.926,3.926,0,0,0,3.936,3.936H361.263a3.926,3.926,0,0,0,3.936-3.936V12.3A3.981,3.981,0,0,1,361.263,16.236Z" transform="translate(-129.356 -7.038)"/>
      <g id="Group_60" data-name="Group 60" class="cls-15" transform="translate(166.365 13.22)">
        <path id="Path_32" data-name="Path 32" class="cls-16" d="M399.909,130.753c17.5-7.273,49.285-27.637,49.285-79.147V30.9h-46.8c0,53.991-.6,83.382-13.69,100.923,12.92,21.006,14.075,60.451,13.69,100.923h46.846V212.039c0-51.552-31.787-71.874-49.285-79.147A1.136,1.136,0,0,1,399.909,130.753Z" transform="translate(-388.7 -30.9)"/>
      </g>
      <rect id="Rectangle_140" data-name="Rectangle 140" class="cls-13" width="121.073" height="7.615" transform="translate(105.786 13.22)"/>
    </g>
    <g id="Group_109" data-name="Group 109" transform="translate(-130 -275)">
      <circle id="Ellipse_2" data-name="Ellipse 2" class="cls-6" cx="40" cy="40" r="40" transform="translate(920 520)"/>
      <g id="check-mark" transform="translate(937 537.186)">
        <g id="Group_108" data-name="Group 108">
          <path id="Path_247" data-name="Path 247" class="cls-17" d="M20.687,38.332a5.308,5.308,0,0,1-7.505,0L1.554,26.7a5.306,5.306,0,0,1,7.5-7.5l6.928,6.927a1.344,1.344,0,0,0,1.9,0L36.642,7.368a5.306,5.306,0,1,1,7.505,7.5Z"/>
        </g>
      </g>
    </g>
    <g id="Group_112" data-name="Group 112" transform="translate(830 335)">
      <circle id="Ellipse_2-2" data-name="Ellipse 2" class="cls-6" cx="15" cy="15" r="15"/>
    </g>
    <g id="Group_113" data-name="Group 113" transform="translate(873 393)">
      <circle id="Ellipse_2-3" data-name="Ellipse 2" class="cls-6" cx="5" cy="5" r="5"/>
    </g>
    <g id="Group_114" data-name="Group 114" transform="translate(850 370)">
      <circle id="Ellipse_2-4" data-name="Ellipse 2" class="cls-6" cx="10" cy="10" r="10"/>
    </g>
  </g>
</svg>
